<?xml version="1.0" standalone="no"?>
<!DOCTYPE svg PUBLIC "-//W3C//DTD SVG 20010904//EN"
 "http://www.w3.org/TR/2001/REC-SVG-20010904/DTD/svg10.dtd">
<svg version="1.0" xmlns="http://www.w3.org/2000/svg"
 width="800.000000pt" height="800.000000pt" viewBox="0 0 800.000000 800.000000"
 preserveAspectRatio="xMidYMid meet">
<metadata>
Created by potrace 1.14, written by Peter Selinger 2001-2017
</metadata>
<g transform="translate(0.000000,800.000000) scale(0.100000,-0.100000)"
fill="#000000" stroke="none">
<path d="M0 4000 l0 -4000 4000 0 4000 0 0 4000 0 4000 -4000 0 -4000 0 0
-4000z m4030 2315 c0 -13 21 -15 125 -15 104 0 125 -2 125 -15 0 -12 16 -15
80 -15 64 0 80 -3 80 -15 0 -10 10 -15 30 -15 23 0 30 -4 30 -20 0 -17 7 -20
45 -20 33 0 45 -4 45 -15 0 -11 12 -15 50 -15 38 0 50 -4 50 -15 0 -8 7 -15
15 -15 8 0 15 -7 15 -15 0 -10 10 -15 30 -15 20 0 30 -5 30 -15 0 -8 7 -15 15
-15 8 0 15 -7 15 -15 0 -8 7 -15 15 -15 8 0 15 -7 15 -15 0 -10 11 -15 35 -15
24 0 35 -5 35 -15 0 -8 7 -15 15 -15 8 0 15 -9 15 -20 0 -11 7 -20 15 -20 8 0
15 -7 15 -15 0 -8 7 -15 15 -15 8 0 15 -7 15 -15 0 -8 7 -15 15 -15 8 0 15 -7
15 -15 0 -8 7 -15 15 -15 8 0 15 -7 15 -15 0 -8 7 -15 15 -15 8 0 15 -7 15
-15 0 -8 7 -15 15 -15 8 0 15 -7 15 -15 0 -8 9 -15 20 -15 16 0 20 -7 20 -35
0 -24 5 -35 15 -35 8 0 15 -7 15 -15 0 -8 7 -15 15 -15 8 0 15 -7 15 -15 0 -8
7 -15 15 -15 10 0 15 -10 15 -30 0 -20 5 -30 15 -30 10 0 15 -10 15 -30 0 -20
5 -30 15 -30 10 0 15 -11 15 -35 0 -24 5 -35 15 -35 10 0 15 -10 15 -30 0 -20
5 -30 15 -30 11 0 15 -12 15 -45 0 -38 3 -45 20 -45 18 0 20 -7 20 -65 0 -51
3 -65 15 -65 12 0 15 -15 15 -75 0 -60 3 -75 15 -75 13 0 15 -26 15 -175 0
-149 -2 -175 -15 -175 -12 0 -15 -15 -15 -75 0 -60 -3 -75 -15 -75 -11 0 -15
-12 -15 -50 0 -43 -3 -50 -20 -50 -17 0 -20 -7 -20 -45 0 -33 -4 -45 -15 -45
-11 0 -15 -12 -15 -45 0 -33 -4 -45 -15 -45 -10 0 -15 -11 -15 -35 0 -24 -5
-35 -15 -35 -10 0 -15 -10 -15 -30 0 -20 -5 -30 -15 -30 -10 0 -15 -10 -15
-30 0 -20 -5 -30 -15 -30 -8 0 -15 -7 -15 -15 0 -8 -7 -15 -15 -15 -8 0 -15
-7 -15 -15 0 -8 -7 -15 -15 -15 -8 0 -15 -9 -15 -20 0 -13 -7 -20 -20 -20 -16
0 -20 -7 -20 -30 0 -20 -5 -30 -15 -30 -8 0 -15 -7 -15 -15 0 -8 -7 -15 -15
-15 -8 0 -15 -7 -15 -15 0 -8 -7 -15 -15 -15 -8 0 -15 -7 -15 -15 0 -8 -7 -15
-15 -15 -8 0 -15 -7 -15 -15 0 -8 -7 -15 -15 -15 -8 0 -15 -7 -15 -15 0 -8 -7
-15 -15 -15 -8 0 -15 -9 -15 -20 0 -11 -7 -20 -15 -20 -8 0 -15 -7 -15 -15 0
-8 -9 -15 -20 -15 -11 0 -20 -7 -20 -15 0 -10 -10 -15 -30 -15 -20 0 -30 -5
-30 -15 0 -8 -7 -15 -15 -15 -8 0 -15 -7 -15 -15 0 -10 -10 -15 -30 -15 -20 0
-30 -5 -30 -15 0 -10 -10 -15 -30 -15 -20 0 -30 -5 -30 -15 0 -11 -12 -15 -50
-15 -38 0 -50 -4 -50 -15 0 -10 -10 -15 -30 -15 -23 0 -30 -4 -30 -20 0 -18
-7 -20 -65 -20 -51 0 -65 -3 -65 -15 0 -12 -17 -15 -90 -15 -73 0 -90 -3 -90
-15 0 -13 -28 -15 -190 -15 -162 0 -190 2 -190 15 0 12 -17 15 -95 15 -78 0
-95 3 -95 15 0 12 -13 15 -60 15 -53 0 -60 2 -60 20 0 16 -7 20 -30 20 -20 0
-30 5 -30 15 0 11 -12 15 -50 15 -38 0 -50 4 -50 15 0 10 -10 15 -30 15 -20 0
-30 5 -30 15 0 8 -7 15 -15 15 -8 0 -15 7 -15 15 0 10 -10 15 -30 15 -20 0
-30 5 -30 15 0 8 -7 15 -15 15 -8 0 -15 7 -15 15 0 10 -11 15 -35 15 -24 0
-35 5 -35 15 0 8 -7 15 -15 15 -8 0 -15 9 -15 20 0 11 -7 20 -15 20 -8 0 -15
7 -15 15 0 8 -7 15 -15 15 -8 0 -15 7 -15 15 0 8 -7 15 -15 15 -8 0 -15 7 -15
15 0 8 -7 15 -15 15 -8 0 -15 7 -15 15 0 8 -7 15 -15 15 -8 0 -15 7 -15 15 0
8 -9 15 -20 15 -16 0 -20 7 -20 30 0 20 -5 30 -15 30 -8 0 -15 9 -15 20 0 11
-7 20 -15 20 -8 0 -15 7 -15 15 0 8 -7 15 -15 15 -10 0 -15 10 -15 31 0 19 -4
28 -11 24 -6 -4 -13 2 -16 14 -3 12 -12 21 -19 21 -9 0 -14 11 -14 30 0 20 -5
30 -15 30 -10 0 -15 11 -15 35 0 24 -5 35 -15 35 -11 0 -15 12 -15 45 0 38 -3
45 -20 45 -17 0 -20 7 -20 45 0 33 -4 45 -15 45 -11 0 -15 12 -15 50 0 38 -4
50 -15 50 -12 0 -15 17 -15 90 0 73 -3 90 -15 90 -13 0 -15 26 -15 175 0 149
2 175 15 175 12 0 15 13 15 60 0 47 3 60 15 60 12 0 15 14 15 65 0 51 3 65 15
65 11 0 15 12 15 45 0 38 3 45 20 45 16 0 20 7 20 30 0 20 5 30 15 30 10 0 15
11 15 35 0 24 5 35 15 35 10 0 15 10 15 30 0 20 5 30 15 30 10 0 15 10 15 30
0 20 5 30 15 30 8 0 15 7 15 15 0 8 7 15 15 15 8 0 15 7 15 15 0 8 7 15 15 15
10 0 15 11 15 35 0 24 5 35 15 35 8 0 15 7 15 15 0 8 9 15 20 15 11 0 20 7 20
15 0 8 7 15 15 15 8 0 15 7 15 15 0 8 7 15 15 15 8 0 15 7 15 15 0 8 7 15 15
15 8 0 15 7 15 15 0 8 7 15 15 15 8 0 15 7 15 15 0 8 7 15 15 15 8 0 15 9 15
20 0 11 7 20 15 20 8 0 15 7 15 15 0 8 7 15 15 15 8 0 15 7 15 15 0 10 11 15
35 15 24 0 35 5 35 15 0 8 7 15 15 15 8 0 15 7 15 15 0 10 10 15 30 15 20 0
30 5 30 15 0 10 10 15 30 15 20 0 30 5 30 15 0 10 11 15 35 15 24 0 35 5 35
15 0 10 10 15 30 15 23 0 30 4 30 20 0 17 7 20 45 20 33 0 45 4 45 15 0 12 16
15 80 15 64 0 80 3 80 15 0 13 22 15 140 15 118 0 140 2 140 15 0 8 7 15 15
15 8 0 15 -7 15 -15z m-500 -3530 c0 -8 7 -15 15 -15 8 0 15 -7 15 -15 0 -10
10 -15 30 -15 23 0 30 -4 30 -20 0 -13 7 -20 20 -20 16 0 20 -7 20 -30 0 -20
5 -30 15 -30 13 0 15 -22 15 -140 0 -118 -2 -140 -15 -140 -10 0 -15 -10 -15
-30 0 -23 -4 -30 -20 -30 -11 0 -20 -7 -20 -15 0 -8 -7 -15 -15 -15 -8 0 -15
-7 -15 -15 0 -10 -10 -15 -30 -15 -23 0 -30 -4 -30 -20 0 -19 -7 -20 -170 -20
l-170 0 0 243 c0 133 -3 253 -7 266 -6 23 -7 23 -14 5 -7 -18 -8 -17 -8 4 -1
13 5 22 14 22 10 0 15 10 15 30 l0 30 170 0 c144 0 170 -2 170 -15z m340 -205
l0 -220 125 0 c106 0 125 -2 125 -15 0 -13 13 -15 80 -13 l80 3 0 78 0 77 -60
0 -60 0 0 60 c0 47 3 60 15 60 8 0 15 7 15 15 0 10 10 15 30 15 20 0 30 5 30
15 0 10 10 15 30 15 20 0 30 5 30 15 0 11 12 15 50 15 38 0 50 -4 50 -15 0 -8
7 -15 15 -15 13 0 15 -24 15 -155 l0 -155 30 0 c20 0 30 -5 30 -15 0 -11 12
-15 45 -15 33 0 45 4 45 15 0 10 11 15 35 15 l35 0 0 65 0 65 -65 0 -65 0 0
60 c0 47 3 60 15 60 8 0 15 7 15 15 0 10 10 15 30 15 20 0 30 5 30 15 0 10 11
15 35 15 24 0 35 5 35 15 0 11 12 15 45 15 33 0 45 -4 45 -15 0 -8 7 -15 15
-15 13 0 15 -24 15 -155 l0 -155 30 0 c20 0 30 -5 30 -15 0 -8 9 -15 20 -15
18 0 20 -7 20 -65 l0 -65 -360 0 c-353 0 -360 0 -360 20 0 11 -7 20 -15 20 -8
0 -15 -9 -15 -20 0 -19 -7 -20 -205 -20 -198 0 -205 1 -205 20 0 11 -7 20 -15
20 -13 0 -15 38 -15 280 l0 280 75 0 75 0 0 -220z m384 -229 c4 -5 -1 -8 -9
-7 -21 3 -31 16 -12 16 9 0 18 -4 21 -9z"/>
<path d="M3780 6155 c0 -12 -13 -15 -60 -15 -47 0 -60 -3 -60 -15 0 -11 -12
-15 -50 -15 -38 0 -50 -4 -50 -15 0 -11 -12 -15 -45 -15 -33 0 -45 -4 -45 -15
0 -8 -7 -15 -15 -15 -8 0 -15 -7 -15 -15 0 -11 -12 -15 -50 -15 -38 0 -50 -4
-50 -15 0 -8 -7 -15 -15 -15 -8 0 -15 -9 -15 -20 0 -16 -7 -20 -30 -20 -20 0
-30 -5 -30 -15 0 -8 -7 -15 -15 -15 -8 0 -15 -7 -15 -15 0 -10 -10 -15 -30
-15 -20 0 -30 -5 -30 -15 0 -8 -9 -15 -20 -15 -11 0 -20 -7 -20 -15 0 -8 -7
-15 -15 -15 -8 0 -15 -7 -15 -15 0 -8 -7 -15 -15 -15 -8 0 -15 -7 -15 -15 0
-8 -7 -15 -15 -15 -8 0 -15 -7 -15 -15 0 -8 -7 -15 -15 -15 -8 0 -15 -9 -15
-20 0 -11 -7 -20 -15 -20 -10 0 -15 -10 -15 -30 0 -20 -5 -30 -15 -30 -8 0
-15 -7 -15 -15 0 -8 -7 -15 -15 -15 -8 0 -15 -7 -15 -15 0 -8 -9 -15 -20 -15
-16 0 -20 -7 -20 -30 0 -20 -5 -30 -15 -30 -10 0 -15 -11 -15 -35 0 -24 -5
-35 -15 -35 -10 0 -15 -10 -15 -30 0 -20 -5 -30 -15 -30 -10 0 -15 -10 -15
-30 0 -20 -5 -30 -15 -30 -11 0 -15 -12 -15 -45 0 -33 -4 -45 -15 -45 -12 0
-15 -14 -15 -65 0 -51 -3 -65 -15 -65 -13 0 -15 -36 -15 -265 0 -229 2 -265
15 -265 11 0 15 -12 15 -45 0 -33 4 -45 15 -45 11 0 15 -12 15 -50 0 -38 4
-50 15 -50 10 0 15 -10 15 -30 0 -20 5 -30 15 -30 10 0 15 -10 15 -30 0 -20 5
-30 15 -30 11 0 15 -12 15 -50 0 -38 4 -50 15 -50 8 0 15 -7 15 -15 0 -8 9
-15 20 -15 11 0 20 -7 20 -15 0 -11 12 -15 45 -15 33 0 45 4 45 15 0 10 10 15
30 15 20 0 30 5 30 15 0 12 14 15 65 15 51 0 65 3 65 15 0 12 13 15 60 15 53
0 60 2 60 20 0 16 7 20 30 20 27 0 30 3 30 30 0 20 -5 30 -15 30 -11 0 -15 12
-15 45 0 33 -4 45 -15 45 -13 0 -15 21 -15 125 0 104 2 125 15 125 8 0 15 7
15 15 0 8 7 15 15 15 8 0 15 7 15 15 0 8 9 15 20 15 18 0 20 -7 20 -75 0 -60
3 -75 15 -75 11 0 15 -12 15 -50 0 -38 4 -50 15 -50 8 0 15 -7 15 -15 0 -8 7
-15 15 -15 8 0 15 -7 15 -15 0 -8 7 -15 15 -15 8 0 15 -7 15 -15 0 -8 7 -15
15 -15 10 0 15 -10 15 -30 0 -27 3 -30 30 -30 20 0 30 -5 30 -15 0 -8 9 -15
20 -15 11 0 20 -7 20 -15 0 -8 7 -15 15 -15 8 0 15 -9 15 -20 0 -11 7 -20 15
-20 8 0 15 -7 15 -15 0 -10 10 -15 30 -15 20 0 30 -5 30 -15 0 -8 7 -15 15
-15 8 0 15 -7 15 -15 0 -8 7 -15 15 -15 8 0 15 -7 15 -15 0 -8 7 -15 15 -15 8
0 15 -7 15 -15 0 -10 11 -15 35 -15 24 0 35 -5 35 -15 0 -8 7 -15 15 -15 8 0
15 -7 15 -15 0 -10 10 -15 30 -15 20 0 30 5 30 15 0 10 10 15 30 15 20 0 30 5
30 15 0 8 7 15 15 15 8 0 15 7 15 15 0 8 9 15 20 15 11 0 20 7 20 15 0 8 7 15
15 15 8 0 15 7 15 15 0 10 10 15 30 15 20 0 30 5 30 15 0 8 7 15 15 15 8 0 15
7 15 15 0 8 7 15 15 15 8 0 15 9 15 20 0 11 7 20 15 20 8 0 15 7 15 15 0 8 7
15 15 15 8 0 15 7 15 15 0 10 11 15 35 15 32 0 35 2 35 30 0 20 5 30 15 30 8
0 15 7 15 15 0 8 7 15 15 15 8 0 15 7 15 15 0 8 7 15 15 15 10 0 15 11 15 35
0 24 5 35 15 35 10 0 15 10 15 30 0 20 5 30 15 30 12 0 15 13 15 60 l0 60 35
0 c24 0 35 -5 35 -15 0 -8 7 -15 15 -15 11 0 15 -12 15 -45 0 -33 4 -45 15
-45 10 0 15 -10 15 -30 0 -20 -5 -30 -15 -30 -11 0 -15 -12 -15 -50 0 -38 -4
-50 -15 -50 -11 0 -15 -12 -15 -45 0 -38 -3 -45 -20 -45 -16 0 -20 -7 -20 -30
0 -28 3 -30 35 -30 28 0 35 -4 35 -20 0 -18 7 -20 60 -20 47 0 60 -3 60 -15 0
-11 12 -15 50 -15 38 0 50 -4 50 -15 0 -12 13 -15 60 -15 47 0 60 -3 60 -15 0
-10 10 -15 30 -15 20 0 30 5 30 15 0 8 7 15 15 15 8 0 15 7 15 15 0 8 9 15 20
15 16 0 20 7 20 35 0 24 5 35 15 35 11 0 15 12 15 45 0 33 4 45 15 45 10 0 15
10 15 30 0 20 5 30 15 30 11 0 15 12 15 50 0 38 4 50 15 50 11 0 15 12 15 45
0 33 4 45 15 45 13 0 15 36 15 265 0 229 -2 265 -15 265 -12 0 -15 14 -15 65
0 51 -3 65 -15 65 -10 0 -15 10 -15 30 0 20 -5 30 -15 30 -11 0 -15 12 -15 45
0 33 -4 45 -15 45 -10 0 -15 10 -15 30 0 20 -5 30 -15 30 -10 0 -15 11 -15 35
0 28 -4 35 -20 35 -16 0 -20 7 -20 30 0 20 -5 30 -15 30 -8 0 -15 7 -15 15 0
8 -7 15 -15 15 -8 0 -15 7 -15 15 0 8 -7 15 -15 15 -10 0 -15 10 -15 30 0 20
-5 30 -15 30 -8 0 -15 9 -15 20 0 11 -7 20 -15 20 -8 0 -15 7 -15 15 0 8 -7
15 -15 15 -8 0 -15 7 -15 15 0 8 -7 15 -15 15 -8 0 -15 7 -15 15 0 8 -9 15
-20 15 -11 0 -20 7 -20 15 0 10 -10 15 -30 15 -20 0 -30 5 -30 15 0 8 -7 15
-15 15 -8 0 -15 7 -15 15 0 8 -7 15 -15 15 -8 0 -15 7 -15 15 0 10 -10 15 -30
15 -23 0 -30 4 -30 20 0 11 -7 20 -15 20 -8 0 -15 7 -15 15 0 10 -11 15 -35
15 -24 0 -35 5 -35 15 0 10 -10 15 -30 15 -20 0 -30 5 -30 15 0 11 -12 15 -45
15 -33 0 -45 4 -45 15 0 11 -12 15 -50 15 -38 0 -50 4 -50 15 0 12 -13 15 -60
15 -47 0 -60 3 -60 15 0 13 -31 15 -220 15 -189 0 -220 -2 -220 -15z m470
-400 c0 -10 10 -15 30 -15 23 0 30 -4 30 -20 0 -16 7 -20 30 -20 20 0 30 -5
30 -15 0 -8 9 -15 20 -15 11 0 20 -7 20 -15 0 -8 7 -15 15 -15 10 0 15 -10 15
-30 0 -20 5 -30 15 -30 11 0 15 -12 15 -45 0 -33 4 -45 15 -45 11 0 15 -12 15
-50 0 -38 4 -50 15 -50 11 0 15 -12 15 -45 0 -33 4 -45 15 -45 11 0 15 -12 15
-50 0 -38 4 -50 15 -50 10 0 15 -10 15 -30 0 -20 5 -30 15 -30 8 0 15 -7 15
-15 0 -8 9 -15 20 -15 11 0 20 -7 20 -15 0 -10 10 -15 30 -15 20 0 30 -5 30
-15 0 -12 13 -15 60 -15 47 0 60 -3 60 -15 0 -11 12 -15 50 -15 38 0 50 -4 50
-15 0 -8 7 -15 15 -15 10 0 15 -11 15 -35 0 -32 -2 -35 -30 -35 -20 0 -30 -5
-30 -15 0 -8 -9 -15 -20 -15 -11 0 -20 -7 -20 -15 0 -8 -7 -15 -15 -15 -8 0
-15 -7 -15 -15 0 -8 -7 -15 -15 -15 -8 0 -15 -7 -15 -15 0 -11 -12 -15 -45
-15 -33 0 -45 -4 -45 -15 0 -8 -7 -15 -15 -15 -8 0 -15 -7 -15 -15 0 -11 -12
-15 -50 -15 -43 0 -50 -3 -50 -20 0 -17 -7 -20 -45 -20 -33 0 -45 -4 -45 -15
0 -11 -12 -15 -45 -15 -33 0 -45 -4 -45 -15 0 -13 -23 -15 -145 -15 -122 0
-145 -2 -145 -15 0 -10 -10 -15 -30 -15 -20 0 -30 -5 -30 -15 0 -8 7 -15 15
-15 12 0 15 -14 15 -65 0 -51 -3 -65 -15 -65 -8 0 -15 -7 -15 -15 0 -8 -7 -15
-15 -15 -8 0 -15 -7 -15 -15 0 -8 7 -15 15 -15 10 0 15 -10 15 -30 0 -20 -5
-30 -15 -30 -10 0 -15 -10 -15 -30 0 -20 5 -30 15 -30 10 0 15 -11 15 -35 0
-24 5 -35 15 -35 8 0 15 -7 15 -15 0 -8 -7 -15 -15 -15 -10 0 -15 -10 -15 -30
0 -27 -3 -30 -30 -30 -20 0 -30 -5 -30 -15 0 -10 -10 -15 -30 -15 -20 0 -30 5
-30 15 0 10 -11 15 -35 15 -24 0 -35 5 -35 15 0 10 -10 15 -30 15 -20 0 -30 5
-30 15 0 8 -7 15 -15 15 -8 0 -15 7 -15 15 0 8 -7 15 -15 15 -8 0 -15 9 -15
20 0 11 -7 20 -15 20 -8 0 -15 7 -15 15 0 8 -7 15 -15 15 -8 0 -15 7 -15 15 0
8 -7 15 -15 15 -8 0 -15 7 -15 15 0 8 -9 15 -20 15 -16 0 -20 7 -20 30 0 20
-5 30 -15 30 -10 0 -15 10 -15 30 0 20 5 30 15 30 8 0 15 9 15 20 0 16 7 20
35 20 24 0 35 5 35 15 0 12 19 15 110 15 91 0 110 3 110 15 0 11 12 15 45 15
43 0 45 1 45 30 l0 30 -65 0 c-51 0 -65 3 -65 15 0 12 -18 15 -105 15 -87 0
-105 3 -105 15 0 12 -14 15 -65 15 -51 0 -65 3 -65 15 0 11 -12 15 -45 15 -38
0 -45 3 -45 20 0 17 -7 20 -50 20 -38 0 -50 4 -50 15 0 10 -10 15 -30 15 -20
0 -30 5 -30 15 0 8 -7 15 -15 15 -8 0 -15 7 -15 15 0 10 -10 15 -30 15 -20 0
-30 5 -30 15 0 8 -7 15 -15 15 -8 0 -15 7 -15 15 0 10 -11 15 -35 15 -24 0
-35 5 -35 15 0 8 -7 15 -15 15 -11 0 -15 12 -15 50 l0 50 65 0 c51 0 65 3 65
15 0 11 12 15 45 15 33 0 45 4 45 15 0 10 10 15 30 15 20 0 30 5 30 15 0 8 7
15 15 15 8 0 15 7 15 15 0 8 9 15 20 15 11 0 20 7 20 15 0 8 7 15 15 15 10 0
15 11 15 35 0 24 5 35 15 35 12 0 15 13 15 60 0 47 3 60 15 60 12 0 15 14 15
65 0 51 3 65 15 65 11 0 15 12 15 45 0 33 4 45 15 45 10 0 15 10 15 30 0 20 5
30 15 30 8 0 15 7 15 15 0 8 7 15 15 15 8 0 15 7 15 15 0 8 9 15 20 15 13 0
20 7 20 20 0 18 7 20 60 20 53 0 60 -2 60 -20 0 -11 -7 -20 -15 -20 -8 0 -15
-7 -15 -15 0 -8 -7 -15 -15 -15 -8 0 -15 -7 -15 -15 0 -8 -7 -15 -15 -15 -10
0 -15 -10 -15 -30 0 -20 -5 -30 -15 -30 -10 0 -15 -10 -15 -30 0 -23 -4 -30
-20 -30 -18 0 -20 -7 -20 -80 0 -64 -3 -80 -15 -80 -12 0 -15 -16 -15 -80 0
-64 -3 -80 -15 -80 -8 0 -15 -7 -15 -15 0 -10 10 -15 30 -15 20 0 30 -5 30
-15 0 -12 16 -15 80 -15 64 0 80 -3 80 -15 0 -12 19 -15 110 -15 91 0 110 3
110 15 0 8 -7 15 -15 15 -8 0 -15 7 -15 15 0 8 -7 15 -15 15 -10 0 -15 11 -15
35 0 24 -5 35 -15 35 -13 0 -15 21 -15 125 0 104 2 125 15 125 11 0 15 12 15
45 0 33 4 45 15 45 8 0 15 7 15 15 0 8 7 15 15 15 8 0 15 7 15 15 0 12 13 15
60 15 47 0 60 -3 60 -15 0 -8 9 -15 20 -15 11 0 20 -7 20 -15 0 -8 7 -15 15
-15 10 0 15 10 15 30 0 20 -5 30 -15 30 -8 0 -15 7 -15 15 0 8 -9 15 -20 15
-11 0 -20 7 -20 15 0 8 -7 15 -15 15 -8 0 -15 9 -15 20 0 11 7 20 15 20 8 0
15 7 15 15 0 12 14 15 65 15 51 0 65 -3 65 -15z"/>
<path d="M3340 2515 l0 -155 35 0 c24 0 35 -5 35 -15 0 -8 7 -15 15 -15 8 0
15 7 15 15 0 10 10 15 30 15 20 0 30 5 30 15 0 8 7 15 15 15 12 0 15 17 15 95
0 78 -3 95 -15 95 -10 0 -15 10 -15 30 0 27 -3 30 -30 30 -20 0 -30 5 -30 15
0 11 -12 15 -50 15 l-50 0 0 -155z"/>
</g>
</svg>
